<svg width="1600" height="960" viewBox="0 0 1600 960" fill="none" xmlns="http://www.w3.org/2000/svg">
  <defs>
    <linearGradient id="bg" x1="196" y1="96" x2="1404" y2="864" gradientUnits="userSpaceOnUse">
      <stop stop-color="#0F172A"/>
      <stop offset="1" stop-color="#101A37"/>
    </linearGradient>
    <linearGradient id="panel" x1="80" y1="64" x2="1520" y2="896" gradientUnits="userSpaceOnUse">
      <stop stop-color="#111C3A"/>
      <stop offset="1" stop-color="#0C142B"/>
    </linearGradient>
    <linearGradient id="accent" x1="0" y1="0" x2="1" y2="1">
      <stop stop-color="#4F7CFF"/>
      <stop offset="1" stop-color="#2DD4BF"/>
    </linearGradient>
    <linearGradient id="phone1" x1="0" y1="0" x2="1" y2="1">
      <stop stop-color="#E0F2FE"/>
      <stop offset="1" stop-color="#BAE6FD"/>
    </linearGradient>
    <linearGradient id="phone2" x1="0" y1="0" x2="1" y2="1">
      <stop stop-color="#D1FAE5"/>
      <stop offset="1" stop-color="#99F6E4"/>
    </linearGradient>
    <filter id="shadow" x="0" y="0" width="1600" height="960" filterUnits="userSpaceOnUse" color-interpolation-filters="sRGB">
      <feDropShadow dx="0" dy="32" stdDeviation="32" flood-color="#020617" flood-opacity="0.35"/>
    </filter>
  </defs>

  <rect width="1600" height="960" rx="48" fill="url(#bg)"/>
  <rect x="48" y="48" width="1504" height="864" rx="36" fill="url(#panel)"/>

  <g opacity="0.28">
    <circle cx="250" cy="180" r="120" fill="#1D4ED8"/>
    <circle cx="1370" cy="810" r="170" fill="#14B8A6"/>
    <circle cx="1210" cy="160" r="86" fill="#2563EB"/>
  </g>

  <g filter="url(#shadow)">
    <rect x="102" y="102" width="510" height="756" rx="36" fill="#0A1327" stroke="#243B72" stroke-width="2"/>
    <rect x="126" y="126" width="462" height="64" rx="18" fill="#132346"/>
    <circle cx="160" cy="158" r="8" fill="#2DD4BF"/>
    <circle cx="188" cy="158" r="8" fill="#60A5FA"/>
    <circle cx="216" cy="158" r="8" fill="#93C5FD"/>

    <rect x="148" y="226" width="190" height="230" rx="28" fill="#102042" stroke="#3455A4" stroke-width="2"/>
    <rect x="196" y="262" width="94" height="86" rx="28" fill="#D9F99D"/>
    <rect x="230" y="246" width="26" height="18" rx="9" fill="#93C5FD"/>
    <circle cx="222" cy="305" r="12" fill="#0F172A"/>
    <circle cx="264" cy="305" r="12" fill="#0F172A"/>
    <rect x="215" y="332" width="56" height="12" rx="6" fill="#0F172A"/>
    <rect x="203" y="362" width="80" height="28" rx="14" fill="#38BDF8"/>
    <rect x="175" y="408" width="136" height="22" rx="11" fill="#1D4ED8"/>

    <path d="M338 308C392 312 414 342 426 390" stroke="#60A5FA" stroke-width="8" stroke-linecap="round"/>
    <path d="M426 390L474 352" stroke="#60A5FA" stroke-width="8" stroke-linecap="round"/>
    <circle cx="482" cy="346" r="14" fill="#2DD4BF"/>
    <path d="M482 346L516 320" stroke="#2DD4BF" stroke-width="8" stroke-linecap="round"/>
    <rect x="500" y="286" width="64" height="54" rx="18" fill="#0EA5E9"/>
    <rect x="516" y="302" width="34" height="22" rx="11" fill="#E0F2FE"/>

    <rect x="148" y="518" width="418" height="148" rx="28" fill="#101E3D" stroke="#2A4889" stroke-width="2"/>
    <rect x="178" y="550" width="250" height="24" rx="12" fill="#3157C7"/>
    <rect x="178" y="588" width="338" height="16" rx="8" fill="#2D9CDB"/>
    <rect x="178" y="618" width="286" height="16" rx="8" fill="#2D9CDB" opacity="0.78"/>
    <rect x="178" y="648" width="180" height="16" rx="8" fill="#2D9CDB" opacity="0.52"/>

    <rect x="148" y="700" width="202" height="112" rx="24" fill="#101E3D" stroke="#2A4889" stroke-width="2"/>
    <rect x="372" y="700" width="194" height="112" rx="24" fill="#101E3D" stroke="#2A4889" stroke-width="2"/>
    <rect x="178" y="730" width="142" height="18" rx="9" fill="#38BDF8"/>
    <rect x="178" y="762" width="110" height="16" rx="8" fill="#7DD3FC"/>
    <rect x="402" y="730" width="134" height="18" rx="9" fill="#2DD4BF"/>
    <rect x="402" y="762" width="94" height="16" rx="8" fill="#99F6E4"/>
  </g>

  <g filter="url(#shadow)">
    <rect x="670" y="102" width="828" height="756" rx="36" fill="#0B162F" stroke="#29457F" stroke-width="2"/>
    <rect x="712" y="146" width="248" height="56" rx="18" fill="#132346"/>
    <rect x="980" y="146" width="182" height="56" rx="18" fill="#132346"/>
    <rect x="1182" y="146" width="274" height="56" rx="18" fill="#132346"/>
    <rect x="732" y="164" width="82" height="20" rx="10" fill="#38BDF8"/>
    <rect x="1000" y="164" width="90" height="20" rx="10" fill="#2DD4BF"/>
    <rect x="1202" y="164" width="124" height="20" rx="10" fill="#F9A8D4"/>

    <rect x="734" y="246" width="280" height="530" rx="42" fill="#07101F" stroke="#3B82F6" stroke-width="3"/>
    <rect x="828" y="266" width="92" height="8" rx="4" fill="#1E293B"/>
    <rect x="760" y="294" width="228" height="454" rx="28" fill="url(#phone1)"/>
    <rect x="792" y="330" width="164" height="120" rx="24" fill="#4F7CFF"/>
    <rect x="784" y="474" width="180" height="22" rx="11" fill="#0F172A" opacity="0.88"/>
    <rect x="784" y="514" width="150" height="16" rx="8" fill="#1D4ED8" opacity="0.65"/>
    <rect x="784" y="546" width="128" height="16" rx="8" fill="#1D4ED8" opacity="0.48"/>
    <rect x="784" y="600" width="180" height="78" rx="24" fill="#DBEAFE"/>
    <rect x="808" y="624" width="132" height="18" rx="9" fill="#38BDF8"/>

    <rect x="1090" y="246" width="280" height="530" rx="42" fill="#07101F" stroke="#2DD4BF" stroke-width="3"/>
    <rect x="1184" y="266" width="92" height="8" rx="4" fill="#1E293B"/>
    <rect x="1116" y="294" width="228" height="454" rx="28" fill="url(#phone2)"/>
    <rect x="1140" y="326" width="180" height="36" rx="18" fill="#0F172A" opacity="0.88"/>
    <rect x="1140" y="384" width="180" height="144" rx="24" fill="#14B8A6"/>
    <rect x="1140" y="550" width="180" height="22" rx="11" fill="#0F172A" opacity="0.88"/>
    <rect x="1140" y="590" width="146" height="16" rx="8" fill="#0F766E" opacity="0.7"/>
    <rect x="1140" y="622" width="104" height="16" rx="8" fill="#0F766E" opacity="0.5"/>

    <rect x="1412" y="288" width="52" height="52" rx="18" fill="#1D4ED8"/>
    <rect x="1412" y="360" width="52" height="52" rx="18" fill="#2DD4BF"/>
    <rect x="1412" y="432" width="52" height="52" rx="18" fill="#F59E0B"/>
    <path d="M1456 314L1488 314" stroke="#93C5FD" stroke-width="2" stroke-linecap="round" stroke-dasharray="6 6"/>
    <path d="M1456 386L1488 386" stroke="#99F6E4" stroke-width="2" stroke-linecap="round" stroke-dasharray="6 6"/>
    <path d="M1456 458L1488 458" stroke="#FCD34D" stroke-width="2" stroke-linecap="round" stroke-dasharray="6 6"/>

    <rect x="742" y="792" width="222" height="40" rx="20" fill="url(#accent)"/>
    <rect x="984" y="792" width="160" height="40" rx="20" fill="#132346"/>
    <rect x="1164" y="792" width="212" height="40" rx="20" fill="#132346"/>
  </g>

  <g opacity="0.9">
    <path d="M1032 268V754" stroke="#7DD3FC" stroke-width="2" stroke-dasharray="10 10"/>
    <path d="M1388 268V754" stroke="#99F6E4" stroke-width="2" stroke-dasharray="10 10"/>
    <path d="M744 520H1466" stroke="#93C5FD" stroke-width="2" stroke-dasharray="10 10"/>
    <circle cx="1032" cy="520" r="9" fill="#7DD3FC"/>
    <circle cx="1388" cy="520" r="9" fill="#99F6E4"/>
    <circle cx="744" cy="520" r="9" fill="#93C5FD"/>
    <circle cx="1466" cy="520" r="9" fill="#93C5FD"/>
  </g>
</svg>
