<svg width="512" height="512" viewBox="0 0 512 512" fill="none" xmlns="http://www.w3.org/2000/svg">
  <defs>
    <linearGradient id="bg" x1="48" y1="40" x2="464" y2="472" gradientUnits="userSpaceOnUse">
      <stop stop-color="#0F172A"/>
      <stop offset="1" stop-color="#101A37"/>
    </linearGradient>
    <linearGradient id="phone" x1="170" y1="126" x2="332" y2="374" gradientUnits="userSpaceOnUse">
      <stop stop-color="#60A5FA"/>
      <stop offset="1" stop-color="#22D3EE"/>
    </linearGradient>
    <linearGradient id="wand" x1="108" y1="352" x2="248" y2="212" gradientUnits="userSpaceOnUse">
      <stop stop-color="#FDE68A"/>
      <stop offset="1" stop-color="#F59E0B"/>
    </linearGradient>
    <linearGradient id="spark" x1="292" y1="114" x2="390" y2="214" gradientUnits="userSpaceOnUse">
      <stop stop-color="#99F6E4"/>
      <stop offset="1" stop-color="#22D3EE"/>
    </linearGradient>
  </defs>

  <rect width="512" height="512" rx="128" fill="url(#bg)"/>
  <rect x="52" y="52" width="408" height="408" rx="104" fill="#121D3A" stroke="#22314F" stroke-width="4"/>

  <g opacity="0.22">
    <circle cx="126" cy="120" r="62" fill="#1D4ED8"/>
    <circle cx="388" cy="394" r="76" fill="#14B8A6"/>
  </g>

  <g>
    <rect x="167" y="110" width="178" height="292" rx="42" fill="#0A1327" stroke="url(#phone)" stroke-width="14"/>
    <rect x="190" y="145" width="132" height="190" rx="28" fill="url(#phone)" opacity="0.18"/>
    <rect x="223" y="126" width="66" height="10" rx="5" fill="#1E293B"/>
    <circle cx="256" cy="366" r="14" fill="#38BDF8"/>
  </g>

  <g transform="rotate(-45 168 320)">
    <rect x="94" y="304" width="148" height="32" rx="16" fill="url(#wand)"/>
    <rect x="94" y="304" width="34" height="32" rx="16" fill="#FB7185"/>
    <rect x="208" y="304" width="34" height="32" rx="16" fill="#F8FAFC"/>
  </g>

  <g>
    <path d="M340 116L352 144L380 156L352 168L340 196L328 168L300 156L328 144L340 116Z" fill="url(#spark)"/>
    <path d="M392 178L400 195L418 203L400 211L392 228L384 211L366 203L384 195L392 178Z" fill="#60A5FA"/>
    <circle cx="310" cy="212" r="8" fill="#22D3EE"/>
  </g>
</svg>
